<svg width="191" height="48" viewBox="0 0 191 48" fill="none" xmlns="http://www.w3.org/2000/svg">
<path d="M3.42188 5.90625C3.26562 5.8125 3 5.76562 2.625 5.76562C2.28125 5.76562 2.01562 5.6875 1.82812 5.53125V5.10938C1.85938 4.70313 2.07812 4.45312 2.48438 4.35938C2.89062 4.26562 3.34375 4.21875 3.84375 4.21875C4.375 4.21875 4.89062 4.23438 5.39062 4.26562C5.92188 4.29687 6.29688 4.23438 6.51562 4.07812C6.70312 4.14063 6.95312 4.21875 7.26562 4.3125C7.60938 4.375 7.76562 4.53125 7.73438 4.78125C7.73438 5 7.65625 5.14062 7.5 5.20312C7.34375 5.26563 7.09375 5.32812 6.75 5.39062C6.4375 5.45313 6.20312 5.57812 6.04688 5.76562C5.95312 5.92188 5.90625 6.0625 5.90625 6.1875C5.9375 6.28125 5.85938 6.39063 5.67188 6.51562C5.85938 7.73438 5.85938 9.15625 5.67188 10.7812C5.51562 12.375 5.48438 13.75 5.57812 14.9062C5.70312 16.0625 5.78125 17.25 5.8125 18.4688C5.71875 18.5312 5.67188 18.5781 5.67188 18.6094L5.76562 18.7031C5.85938 18.9531 5.875 19.4844 5.8125 20.2969C5.78125 21.0781 5.85938 21.6562 6.04688 22.0312C5.98438 22.0938 5.95312 22.1719 5.95312 22.2656L6 22.7344L5.85938 22.9219C5.85938 23.0156 5.90625 23.125 6 23.25C6.125 23.375 6.09375 23.5312 5.90625 23.7188C5.9375 23.9062 5.98438 24.0938 6.04688 24.2812C6.14062 24.4375 6.10938 24.6562 5.95312 24.9375L6.04688 26.1562C6.04688 26.875 6.01562 27.6406 5.95312 28.4531C5.92188 29.2344 5.95312 30.0781 6.04688 30.9844L5.90625 31.3125L6.09375 31.4062C6.125 31.6562 6.14062 32.0156 6.14062 32.4844V35.625C6.14062 36.4062 6.07812 36.9375 5.95312 37.2188C5.85938 37.4688 5.8125 37.7188 5.8125 37.9688L5.76562 39C6.29688 39.2188 6.79688 39.3125 7.26562 39.2812C7.73438 39.25 8.09375 39.2344 8.34375 39.2344L9.1875 39.0938L12.6562 39.4219L13.0312 39.5625C13.2188 39.4688 13.5625 39.4844 14.0625 39.6094C14.5 39.6406 14.8125 39.4844 15 39.1406C15.2188 38.7656 15.3438 38.4688 15.375 38.25C15.4062 38.0312 15.4062 37.8594 15.375 37.7344C15.3438 37.3594 15.4844 36.9531 15.7969 36.5156C16.3594 35.8594 16.8281 35.8906 17.2031 36.6094C17.4531 36.9844 17.5312 37.25 17.4375 37.4062C17.1562 37.9688 17.0625 38.3281 17.1562 38.4844C17.25 38.6406 17.3125 38.7656 17.3438 38.8594C17.2188 39.0781 17.125 39.3438 17.0625 39.6562L17.1094 40.2656L16.9688 40.7344C16.9375 40.8906 16.9688 41.0625 17.0625 41.25C17.1875 41.625 17.1406 42.0781 16.9219 42.6094L16.5469 43.3125C16.1719 43.4688 15.7969 43.5469 15.4219 43.5469C15.1094 43.4844 14.8438 43.375 14.625 43.2188C14.5312 43.0938 14.4844 42.9375 14.4844 42.75C14.4844 42.5938 14.5312 42.4844 14.625 42.4219C14.4375 42.3281 14.3594 42.2344 14.3906 42.1406C14.4219 42.0469 14.4219 41.9062 14.3906 41.7188C14.2969 41.5625 13.8906 41.3906 13.1719 41.2031C12.4531 41.0156 12.0625 40.9219 12 40.9219C11.9375 40.9219 10.7812 40.8594 8.53125 40.7344L6.32812 40.9688C6.17188 40.9688 5.92188 40.9531 5.57812 40.9219C5.26562 40.8906 5 40.9375 4.78125 41.0625C4.59375 41.2188 4.40625 41.3125 4.21875 41.3438C4.03125 41.4062 3.82812 41.4219 3.60938 41.3906C3.10938 41.2656 2.73438 41.2656 2.48438 41.3906L2.34375 41.25C2.09375 41.2188 1.85938 41.2188 1.64062 41.25C1.42188 41.2812 1.21875 41.2812 1.03125 41.25C0.875 41.2188 0.734375 41.1875 0.609375 41.1562C0.515625 41.1562 0.40625 41.125 0.28125 41.0625C0.09375 40.3438 0.28125 39.8906 0.84375 39.7031C1.03125 39.6719 1.20312 39.6562 1.35938 39.6562C1.54688 39.625 1.71875 39.5781 1.875 39.5156C2.0625 39.4531 2.23438 39.4062 2.39062 39.375C2.54688 39.3125 2.70312 39.25 2.85938 39.1875C2.95312 39 3 38.75 3 38.4375L3.23438 37.0781C3.23438 36.9844 3.25 36.9062 3.28125 36.8438C3.34375 36.75 3.35938 36.6719 3.32812 36.6094C3.10938 36.2344 3.0625 35.6406 3.1875 34.8281C3.34375 34.0156 3.39062 33.3281 3.32812 32.7656L3.1875 32.0156C3.1875 31.9531 3.20312 31.9219 3.23438 31.9219C3.26562 31.9219 3.28125 31.875 3.28125 31.7812C3.09375 31.375 3.0625 30.6719 3.1875 29.6719C3.3125 28.6406 3.35938 27.8594 3.32812 27.3281C3.32812 26.7656 3.3125 26.3906 3.28125 26.2031C3.25 26.0156 3.26562 25.7031 3.32812 25.2656L3.23438 24.2344C3.20312 23.8594 3.21875 23.4844 3.28125 23.1094C3.34375 22.7031 3.32812 22.3281 3.23438 21.9844L2.95312 17.1094C2.95312 17.0156 3 16.9219 3.09375 16.8281C3.03125 16.6406 3.01562 16.4688 3.04688 16.3125C3.07812 16.125 3.07812 15.9219 3.04688 15.7031C3.01562 15.4844 3.01562 15.2969 3.04688 15.1406C3.07812 14.9531 3.0625 14.8594 3 14.8594C2.9375 14.8281 2.90625 14.7344 2.90625 14.5781L3.09375 13.4531C3.125 13.1719 3.10938 12.8281 3.04688 12.4219C3.01562 11.9844 3.0625 11.4844 3.1875 10.9219C3.5 9.20312 3.57812 7.53125 3.42188 5.90625ZM22.0312 22.875L22.3594 18.375V16.8281C22.3594 16.6406 22.3438 16.4219 22.3125 16.1719L22.1719 14.4844C22.1406 14.2031 22.125 13.9062 22.125 13.5938C22.1562 13.2812 22.1719 13.0156 22.1719 12.7969V12.2344C22.1719 12.1094 22.1562 11.9531 22.125 11.7656L21.9844 11.1562L22.0312 10.6875C22.0312 10.5312 22 10.4062 21.9375 10.3125C21.875 10.2188 21.8125 10.0781 21.75 9.89062C21.7188 9.70312 21.7188 9.48438 21.75 9.23438C21.7812 8.98438 21.7656 8.79688 21.7031 8.67188C21.6719 8.51562 21.6094 8.40625 21.5156 8.34375C21.4531 8.28125 21.3906 8.21875 21.3281 8.15625C21.2656 8.0625 21.2188 7.96875 21.1875 7.875C21.1875 7.78125 21.125 7.6875 21 7.59375C20.9062 7.46875 20.7344 7.35938 20.4844 7.26562C20.2656 7.17188 20.0625 7.04688 19.875 6.89062C19.9062 6.67188 19.9062 6.46875 19.875 6.28125C19.875 6.0625 19.9375 5.82813 20.0625 5.57812C20.4375 5.45313 20.8281 5.39062 21.2344 5.39062C21.6719 5.39062 22 5.48438 22.2188 5.67188C22.4688 5.82813 22.7344 5.90625 23.0156 5.90625C23.3281 5.90625 23.6562 5.76562 24 5.48438C24.2812 5.57812 24.6719 5.625 25.1719 5.625L26.9062 5.57812L29.2031 5.76562L30.0469 5.67188C30.4844 5.67188 30.9062 5.73438 31.3125 5.85938C31.7188 5.98437 32.1406 6.04688 32.5781 6.04688L33.7031 6L34.3594 5.90625L35.1562 6.09375L36 6L36.7969 6.04688C37.0469 6.04688 37.3125 6 37.5938 5.90625C37.8438 5.375 38 4.79688 38.0625 4.17188C38.1562 3.54687 38.3594 3.01563 38.6719 2.57812C38.9844 2.51562 39.2188 2.48438 39.375 2.48438C39.5625 2.48438 39.7031 2.5625 39.7969 2.71875C39.8906 2.875 39.9375 3 39.9375 3.09375L39.8438 3.375L39.9844 4.40625L39.8906 5.25L40.0312 6.60938L39.9375 7.45312L40.0781 8.20312L39.9375 9.14062L39.9844 9.46875C39.8281 9.59375 39.7031 9.76562 39.6094 9.98438C39.5469 10.2031 39.4688 10.3906 39.375 10.5469C39.1875 10.6406 38.9844 10.75 38.7656 10.875C38.5781 10.9688 38.4219 11.0156 38.2969 11.0156C38.1719 11.0156 38.0312 10.8125 37.875 10.4062C37.7188 10 37.6406 9.67188 37.6406 9.42188L37.7344 8.39062V8.10938C37.4844 7.85938 37.1719 7.73438 36.7969 7.73438L35.9531 7.96875L34.5469 7.64062L33.375 7.73438C33.2812 7.73438 33.2031 7.70312 33.1406 7.64062H32.2031L30.4688 7.54688C30.125 7.54688 29.8438 7.59375 29.625 7.6875C29.4062 7.75 29.1719 7.8125 28.9219 7.875C28.6719 7.9375 28.3594 8 27.9844 8.0625C27.6406 8.09375 27.2812 8.125 26.9062 8.15625C26.5625 8.1875 26.2031 8.21875 25.8281 8.25C25.4844 8.28125 25.2344 8.29688 25.0781 8.29688C24.9219 8.45312 24.8594 8.65625 24.8906 8.90625C24.9219 9.125 24.9062 9.3125 24.8438 9.46875C24.7812 9.59375 24.7344 9.65625 24.7031 9.65625C24.6719 9.65625 24.6562 9.76562 24.6562 9.98438L24.9375 12.2812V13.5L24.9844 14.1562C24.9219 14.1562 24.8906 14.2344 24.8906 14.3906C24.8906 14.5156 25 14.7969 25.2188 15.2344C25.1875 15.3594 25.1719 15.5312 25.1719 15.75L25.0312 16.3594L25.1719 16.9219L25.125 18.0469L25.2188 19.4531L24.8906 24.75C24.8906 25.2188 24.9531 25.7031 25.0781 26.2031C25.2031 26.7031 25.2188 27.1719 25.125 27.6094C25.4375 27.9219 26.0781 28.0781 27.0469 28.0781C28.0469 28.0781 28.6562 28.0938 28.875 28.125L29.4375 28.2188L29.9062 28.125L30.9844 28.3125L32.1094 28.4062C32.5156 28.4062 32.7812 28.2344 32.9062 27.8906C33 27.3906 33.125 27.0625 33.2812 26.9062C33.2812 26.4688 33.3594 26.0938 33.5156 25.7812L34.2188 25.5938C34.375 25.5938 34.5156 25.7344 34.6406 26.0156C34.7969 26.2656 34.875 26.4688 34.875 26.625L34.5 29.4844L34.6875 30.7969C34.4688 31.1719 34.2969 31.5469 34.1719 31.9219C33.9844 31.9531 33.7969 32.0156 33.6094 32.1094C33.4219 32.1719 33.2344 32.2031 33.0469 32.2031C32.9844 32.1406 32.9219 32.0625 32.8594 31.9688C32.8281 31.8438 32.75 31.7344 32.625 31.6406C32.5312 31.5156 32.4531 31.3281 32.3906 31.0781C32.3594 30.7969 32.3125 30.5469 32.25 30.3281C32.0312 30.1719 31.7812 30.125 31.5 30.1875C31.2188 30.2188 30.9844 30.1406 30.7969 29.9531C30.5469 30.0781 30.3281 30.1406 30.1406 30.1406C29.9844 30.1406 29.8125 30.0781 29.625 29.9531C29.25 30.0781 28.8438 30.1406 28.4062 30.1406L26.8594 30.0938H26.4375C26.2188 30.0938 26 30.1406 25.7812 30.2344C25.5938 30.3281 25.4688 30.375 25.4062 30.375C25.3438 30.3438 25.2812 30.3594 25.2188 30.4219L25.2656 30.6094L24.9844 32.9531L25.0781 34.3125L24.9375 35.1094L25.0781 35.6719L24.9375 37.7812C24.9375 38.7812 25.2656 39.2812 25.9219 39.2812L26.8125 39.1875L27.9375 39.3281C28.1875 39.3281 28.3906 39.25 28.5469 39.0938C28.7656 39.1875 29.0156 39.2344 29.2969 39.2344L31.0312 39.0938H31.3125C31.4375 39.0938 31.5625 39.125 31.6875 39.1875C32.0312 39.0625 32.4688 39 33 39C33.5312 39 33.9531 38.9844 34.2656 38.9531C34.6094 38.9219 34.9219 38.8906 35.2031 38.8594C35.5156 38.7969 35.8125 38.7656 36.0938 38.7656L36.8906 38.8125C37.2344 38.8125 37.4375 38.75 37.5 38.625C37.5938 38.4688 37.7188 38.3594 37.875 38.2969C37.9062 38.1719 37.9375 38 37.9688 37.7812C38.0938 36.9062 38.375 36.4688 38.8125 36.4688C39.0938 36.4688 39.2656 36.5469 39.3281 36.7031C39.4219 36.8594 39.5781 37.0156 39.7969 37.1719C39.8906 38.2969 39.9375 39.0625 39.9375 39.4688C39.875 39.4688 39.8438 39.5 39.8438 39.5625L39.9375 40.6406C39.9375 40.9844 39.8594 41.2812 39.7031 41.5312C39.7344 41.6875 39.6562 41.7656 39.4688 41.7656C39.2812 41.7656 39.125 41.7969 39 41.8594C38.9062 41.9531 38.8281 42.0469 38.7656 42.1406C38.7031 42.2344 38.5938 42.2812 38.4375 42.2812L37.6406 42C37.6094 41.7188 37.5781 41.4062 37.5469 41.0625C37.5156 40.7188 37.4219 40.4219 37.2656 40.1719C37.0781 40.2031 36.8906 40.2188 36.7031 40.2188H36.0938C35.4688 40.2188 35.125 40.3125 35.0625 40.5C34.9375 40.4375 34.7969 40.4062 34.6406 40.4062C34.5156 40.4062 34.3594 40.4688 34.1719 40.5938C34.0781 40.5 33.9531 40.4531 33.7969 40.4531L33.1406 40.5L32.625 40.4062L32.1094 40.5L31.3125 40.2656C31 40.2656 30.5 40.5 29.8125 40.9688L28.5938 40.6406C28.5312 40.6406 28.4688 40.6875 28.4062 40.7812C28.375 40.8438 28.2969 40.875 28.1719 40.875L26.7188 40.6875L25.7344 40.8281H24.9844C24.1719 40.8281 23.625 40.9375 23.3438 41.1562C23.1875 41.0312 22.9688 40.9688 22.6875 40.9688L22.3594 41.0625L22.125 40.9688C21.875 40.9688 21.5938 41.0625 21.2812 41.25C21 41.4375 20.8125 41.5312 20.7188 41.5312C20.0938 41.5312 19.7812 41.1406 19.7812 40.3594V40.125C19.9062 39.875 20.25 39.6875 20.8125 39.5625C21.375 39.4375 21.6875 39.375 21.75 39.375C21.875 39.125 21.9531 38.8281 21.9844 38.4844C22.0469 38.1406 22.0938 37.8594 22.125 37.6406C22.1562 37.4219 22.1719 37.2656 22.1719 37.1719L22.0312 36.3281L22.1719 35.7656L22.0312 35.3906L22.125 34.9219L21.9844 34.5L22.125 33.2812C22.1562 33.1562 22.1562 33.0469 22.125 32.9531C22.125 32.8281 22.125 32.6875 22.125 32.5312L22.2656 31.3125L22.0781 30.1406C22.0781 29.9844 22.0938 29.8438 22.125 29.7188C22.1562 29.5938 22.1875 29.4531 22.2188 29.2969C22.25 29.1094 22.25 28.9219 22.2188 28.7344C22.2188 28.5156 22.2188 28.3125 22.2188 28.125V27.6094C22.1562 27.6094 22.125 27.5781 22.125 27.5156L22.2656 27.1875L22.125 26.625C22.0312 26.2812 21.9844 25.8438 21.9844 25.3125C22.0156 24.75 22.0312 24.2812 22.0312 23.9062V22.875ZM40.125 43.7344C39.9375 43.7344 39.8438 43.5625 39.8438 43.2188C39.8438 42.875 39.9688 42.5938 40.2188 42.375C40.4062 42.3125 40.5469 42.2812 40.6406 42.2812L41.3906 42.375L42.0938 42.2812L42.5156 42.3281C42.9844 42.3281 43.2969 41.7656 43.4531 40.6406C43.5156 40.2031 43.5781 39.7656 43.6406 39.3281C43.7031 38.8906 43.8281 38.5781 44.0156 38.3906C43.9531 38.3594 43.9219 38.2969 43.9219 38.2031C43.9219 38.1094 43.9531 37.9688 44.0156 37.7812C44.0781 37.5938 44.125 37.4062 44.1562 37.2188C44.2188 37.0312 44.2812 36.8594 44.3438 36.7031C44.4062 36.5156 44.4531 36.375 44.4844 36.2812C44.5156 36.1875 44.5469 36.1094 44.5781 36.0469C44.6406 35.9531 44.6875 35.8125 44.7188 35.625C44.7812 35.4375 44.8125 35.2344 44.8125 35.0156C44.8125 34.7969 44.8281 34.6094 44.8594 34.4531C44.9219 34.2656 44.9688 34.125 45 34.0312C45.0312 33.9375 45.0938 33.6875 45.1875 33.2812C45.3125 32.875 45.4219 32.3281 45.5156 31.6406C45.6094 30.9219 45.75 30.2188 45.9375 29.5312C46.125 28.8125 46.3281 28.1094 46.5469 27.4219C46.7656 26.7031 46.9219 26.1094 47.0156 25.6406C47.1406 25.1719 47.2188 24.8281 47.25 24.6094C47.3125 24.1719 47.4062 23.8281 47.5312 23.5781C47.6875 23.3281 47.7812 23.1094 47.8125 22.9219C47.875 22.7344 47.9531 22.4844 48.0469 22.1719C48.1719 21.8594 48.2656 21.4531 48.3281 20.9531C48.3906 20.4219 48.4688 20.0156 48.5625 19.7344C48.6562 19.4531 48.7031 19.2969 48.7031 19.2656C48.7344 19.2344 48.75 19.1406 48.75 18.9844C48.75 18.8281 48.7656 18.7188 48.7969 18.6562C48.8594 18.5938 48.9219 18.5156 48.9844 18.4219L49.2188 17.1094L49.3125 17.0625L49.2656 16.875C49.2656 16.4375 49.4375 15.8906 49.7812 15.2344C50.1562 14.5469 50.375 14.1719 50.4375 14.1094C50.4688 13.9531 50.4688 13.7969 50.4375 13.6406C50.4375 13.2969 50.5156 13.0781 50.6719 12.9844C50.7656 12.8906 50.8438 12.6719 50.9062 12.3281L51.0938 12.2344V12C51.0938 11.875 51.1875 11.7656 51.375 11.6719C51.4375 11.4219 51.4844 11.1875 51.5156 10.9688C51.5781 10.75 51.6406 10.5312 51.7031 10.3125L52.0312 9.70312C52.0938 9.60938 52.125 9.51562 52.125 9.42188C52.125 9.29688 52.1562 9.17188 52.2188 9.04688C52.3125 8.89062 52.4375 8.73438 52.5938 8.57812C52.75 8.42188 52.8594 8.20312 52.9219 7.92188C53.0156 7.60938 53.0312 7.29688 52.9688 6.98438C52.9375 6.64062 53.0156 6.3125 53.2031 6C53.3906 5.90625 53.6562 5.85938 54 5.85938C54.375 5.85938 54.6875 6.07812 54.9375 6.51562C55.1875 6.92188 55.3125 7.34375 55.3125 7.78125C55.4688 8 55.5781 8.23438 55.6406 8.48438C55.7344 8.73438 55.875 8.9375 56.0625 9.09375V9.1875C56.0625 9.6875 56.2344 10.2969 56.5781 11.0156C56.9531 11.7344 57.1406 12.25 57.1406 12.5625C57.2344 12.6562 57.3281 12.9219 57.4219 13.3594C57.5469 13.7969 57.8125 14.2188 58.2188 14.625L58.1719 14.7656C58.1719 15.1094 58.25 15.4219 58.4062 15.7031C58.75 16.2969 58.9219 16.8594 58.9219 17.3906C58.9219 17.8906 59.1719 18.8125 59.6719 20.1562C60.1719 21.4688 60.4531 22.4219 60.5156 23.0156L60.4688 23.0625C60.4688 23.1562 60.5 23.2031 60.5625 23.2031C60.7812 23.2656 60.8906 23.4531 60.8906 23.7656C60.8906 24.0781 61.0312 24.4062 61.3125 24.75C61.4688 25.0312 61.5781 25.3438 61.6406 25.6875C61.7344 26 61.9062 26.2812 62.1562 26.5312V26.625C62.1562 26.8438 62.2031 27.0469 62.2969 27.2344C62.3906 27.4219 62.4531 27.5938 62.4844 27.75C62.5469 27.9062 62.5781 28.0469 62.5781 28.1719C62.6094 28.2656 62.6406 28.3594 62.6719 28.4531C62.7344 28.5469 62.8125 28.7344 62.9062 29.0156C63.0312 29.2656 63.1406 29.5469 63.2344 29.8594C63.3594 30.1719 63.4688 30.4531 63.5625 30.7031C63.6562 30.9531 63.7031 31.1094 63.7031 31.1719V31.3125C63.8594 31.4688 63.9531 31.6406 63.9844 31.8281C64.0156 31.9844 64.0625 32.1562 64.125 32.3438C64.3125 32.5938 64.4219 32.875 64.4531 33.1875C64.4844 33.5 64.5312 33.7969 64.5938 34.0781C64.6875 34.3594 64.7812 34.5938 64.875 34.7812C65 34.9688 65.1094 35.1719 65.2031 35.3906C65.3281 35.6094 65.4062 35.8906 65.4375 36.2344C65.5 36.5469 65.5625 36.8281 65.625 37.0781C65.6875 37.2969 65.7656 37.5156 65.8594 37.7344C65.9844 37.9219 66.0781 38.1406 66.1406 38.3906C66.2031 38.6094 66.2188 38.8438 66.1875 39.0938C66.1875 39.5625 66.25 39.9219 66.375 40.1719C66.5312 40.3906 66.6562 40.6875 66.75 41.0625C66.9375 41.4688 67.0625 41.8438 67.125 42.1875C67.1875 42.5312 67.3281 42.7969 67.5469 42.9844L67.6875 43.0312C68.0625 43.0312 68.3281 42.9375 68.4844 42.75C68.6719 42.5938 68.9219 42.5 69.2344 42.4688C69.6719 42.7188 69.8906 43.0625 69.8906 43.5C69.8906 43.5938 69.875 43.6719 69.8438 43.7344C69.9062 43.9219 69.7812 44.0469 69.4688 44.1094C69.1875 44.2031 68.9844 44.2656 68.8594 44.2969C68.6094 44.4844 68.375 44.5625 68.1562 44.5312C67.9688 44.5312 67.8125 44.5469 67.6875 44.5781C67.5938 44.6094 67.5156 44.6406 67.4531 44.6719C67.4219 44.7031 67.375 44.7344 67.3125 44.7656H66.9375C66.7812 44.7656 66.6094 44.8438 66.4219 45C66.2656 45.1562 66.125 45.2344 66 45.2344C65.875 45.2344 65.5781 45.2031 65.1094 45.1406L63.6562 45.4219C63.5 45.4219 63.3906 45.4062 63.3281 45.375C63.1094 45.4375 62.9219 45.5156 62.7656 45.6094C62.6094 45.7031 62.4062 45.75 62.1562 45.75C62.0625 45.5938 61.9688 45.4375 61.875 45.2812C61.7812 45.125 61.7344 44.9375 61.7344 44.7188C61.8281 44.4375 62.0469 44.2344 62.3906 44.1094C62.7344 43.9844 63.0625 43.8594 63.375 43.7344C63.6875 43.6406 63.9688 43.5312 64.2188 43.4062C64.4688 43.3125 64.5938 43.1562 64.5938 42.9375L64.125 41.25C64.0625 41.1562 64 41.0625 63.9375 40.9688C63.875 40.9062 63.8125 40.7969 63.75 40.6406C63.7188 40.4844 63.7031 40.2969 63.7031 40.0781C63.7031 39.8281 63.6719 39.6094 63.6094 39.4219C63.5469 39.2344 63.4844 39.0469 63.4219 38.8594C63.3594 38.6719 63.2969 38.5 63.2344 38.3438C63.0781 38.2188 62.8906 38.0312 62.6719 37.7812C62.4531 37.5 62.2344 37.3594 62.0156 37.3594L61.4062 37.4531L60.8438 37.3594C60.7188 37.3594 60.5938 37.3906 60.4688 37.4531C60.0938 37.5781 59.6406 37.6406 59.1094 37.6406H58.2188L57.4219 37.5469L57.1875 37.6406L56.4375 37.4531L55.9219 37.5C55.7969 37.5 55.6875 37.4531 55.5938 37.3594C55.2188 37.5469 54.9688 37.6406 54.8438 37.6406L53.7656 37.4531L53.25 37.5469L52.5469 37.3594L51.2812 37.4531H50.5312C48.9062 37.4531 47.7969 37.6562 47.2031 38.0625V38.25H47.0156C46.7969 38.4688 46.5312 39.1406 46.2188 40.2656C45.9062 41.3906 45.75 42.0312 45.75 42.1875C45.75 42.3438 45.8438 42.4688 46.0312 42.5625C46.25 42.6562 46.4375 42.7031 46.5938 42.7031C46.75 42.7031 47.0156 42.6562 47.3906 42.5625C47.6719 42.75 47.9219 42.9844 48.1406 43.2656C48.1094 43.5156 48.0469 43.7344 47.9531 43.9219C47.8594 44.1094 47.7656 44.2969 47.6719 44.4844L45.7969 44.25L45.4688 44.1094L44.7656 44.2031L43.875 43.9688L43.4062 44.0625L42.8906 44.0156C42.6406 44.0156 42.5 44.0625 42.4688 44.1562C42.4062 44.1562 42.375 44.1406 42.375 44.1094C42.375 44.0781 42.3438 44.0625 42.2812 44.0625L41.5781 44.2969C41.4531 44.2969 41.2344 44.25 40.9219 44.1562C40.6094 44.0938 40.4531 43.9688 40.4531 43.7812C40.4531 43.6875 40.4062 43.6406 40.3125 43.6406C40.25 43.7031 40.1875 43.7344 40.125 43.7344ZM57.3281 35.7188C57.4531 35.7188 57.5469 35.7031 57.6094 35.6719C57.7031 35.6406 57.9062 35.7344 58.2188 35.9531C58.5625 35.8281 58.8906 35.7656 59.2031 35.7656H60.2812C60.75 35.7656 61.2188 35.7188 61.6875 35.625C61.6562 35.5 61.7344 35.375 61.9219 35.25V35.1094C61.9219 34.7656 61.8594 34.4531 61.7344 34.1719C61.6406 33.8594 61.5625 33.5938 61.5 33.375C61.4688 33.1562 61.4531 32.9844 61.4531 32.8594C61.4844 32.7344 61.4688 32.625 61.4062 32.5312C61.3438 32.4062 61.2812 32.2969 61.2188 32.2031C61.0625 32.0156 60.9531 31.7344 60.8906 31.3594C60.8594 31.1406 60.7812 30.9219 60.6562 30.7031C60.5625 30.4844 60.5156 30.3125 60.5156 30.1875C60.5156 30.0625 60.4844 29.9062 60.4219 29.7188L59.3906 27.5156C59.3594 27.4531 59.3438 27.4219 59.3438 27.4219C59.375 27.3906 59.3906 27.3281 59.3906 27.2344C59.3906 27.1406 59.2188 26.8281 58.875 26.2969C58.5625 25.7656 58.4219 25.4219 58.4531 25.2656C58.5156 25.1094 58.5 24.9062 58.4062 24.6562C58.3125 24.375 58.1875 24.0312 58.0312 23.625C57.875 23.2188 57.7656 22.7969 57.7031 22.3594C57.5469 22.2969 57.4688 22.2344 57.4688 22.1719C57.5 22.0781 57.4844 21.9531 57.4219 21.7969L57.2344 21.6094C57.1719 21.4531 57.1406 21.2812 57.1406 21.0938C57.1406 20.9062 57.125 20.7188 57.0938 20.5312C56.7188 20.0625 56.5312 19.4219 56.5312 18.6094L56.0625 17.625C56.1562 17.4375 56.2031 17.2656 56.2031 17.1094C56.2031 16.9531 56.125 16.8438 55.9688 16.7812C55.8438 16.6875 55.7812 16.4844 55.7812 16.1719C55.7812 15.8594 55.6875 15.5625 55.5 15.2812C55.3125 15 55.2188 14.6562 55.2188 14.25C55.1875 14.1875 55.125 14.1562 55.0312 14.1562C54.9688 14.125 54.875 14.0469 54.75 13.9219C54.625 13.7656 54.5 13.5781 54.375 13.3594C54.2812 13.1406 54.0938 12.9531 53.8125 12.7969V12.7031C53.7188 12.7031 53.6719 12.7344 53.6719 12.7969C53.4844 12.7969 53.3438 13.0469 53.25 13.5469C53.1562 14.0469 52.9844 14.4375 52.7344 14.7188C52.7031 14.8438 52.6875 14.9688 52.6875 15.0938C52.7188 15.1875 52.7031 15.3438 52.6406 15.5625C52.5781 15.7812 52.5 16.0781 52.4062 16.4531C52.2188 16.7031 52.0938 17.0312 52.0312 17.4375C52 17.8438 51.8906 18.2031 51.7031 18.5156C51.6719 18.6719 51.6406 18.8438 51.6094 19.0312C51.6094 19.2188 51.5781 19.3906 51.5156 19.5469C51.4844 19.6719 51.4375 19.7969 51.375 19.9219C51.3438 20.0156 51.3125 20.125 51.2812 20.25L51 22.6406C50.6562 23.1406 50.5 23.6719 50.5312 24.2344C50.4375 24.2969 50.375 24.3906 50.3438 24.5156C50.3438 24.6094 50.2969 24.6875 50.2031 24.75C50.1094 25.5625 49.75 26.6406 49.125 27.9844V28.8281C48.9375 29.1094 48.75 29.7344 48.5625 30.7031C48.4062 31.6719 48.3281 32.2188 48.3281 32.3438C48.2656 32.4062 48.2188 32.5 48.1875 32.625C48.1562 32.7188 48.0625 32.7969 47.9062 32.8594C47.9375 32.9531 47.9531 33.0781 47.9531 33.2344L47.6719 35.25C47.9531 35.5 48.3438 35.625 48.8438 35.625L52.2188 35.4844C52.4062 35.4844 52.5938 35.4844 52.7812 35.4844L54.75 35.7188L56.4375 35.625L57.3281 35.7188ZM96.4688 41.3906L96.1875 41.3438C95.9375 40.9375 95.8125 40.6562 95.8125 40.5C95.8125 40.3438 95.8594 40.1562 95.9531 39.9375C96.0781 39.6875 96.1719 39.5469 96.2344 39.5156C96.3281 39.4531 96.3906 39.4375 96.4219 39.4688C96.4531 39.4688 96.5 39.4219 96.5625 39.3281C96.6562 39.2031 96.875 39.0312 97.2188 38.8125C97.5625 38.5938 97.8594 38.4844 98.1094 38.4844C98.3906 38.4844 98.6562 38.5781 98.9062 38.7656C99.1875 38.9531 99.4844 39.0625 99.7969 39.0938C99.9531 39.1562 100.031 39.2812 100.031 39.4688C100.062 39.6562 100.125 39.8281 100.219 39.9844H100.406C100.469 40.0469 100.5 40.1562 100.5 40.3125C100.531 40.4688 100.562 40.5938 100.594 40.6875C100.656 40.7812 100.734 40.8594 100.828 40.9219C100.922 40.9844 100.984 41.0625 101.016 41.1562C101.078 41.2812 101.078 41.4219 101.016 41.5781C100.984 41.7656 101.047 41.9062 101.203 42C101.172 42.0938 101.156 42.25 101.156 42.4688L101.203 43.7344C101.203 44.2969 101.094 44.625 100.875 44.7188C100.688 44.8438 100.531 45.0469 100.406 45.3281C100.312 45.6094 100.203 45.8281 100.078 45.9844C99.9844 46.1406 99.8594 46.2031 99.7031 46.1719C99.5469 46.1719 99.4688 46.25 99.4688 46.4062C99.3438 46.5938 99.1875 46.75 99 46.875H98.8594L98.3438 46.7812C98.2188 46.875 98.0781 46.9375 97.9219 46.9688C97.7969 47.0312 97.7031 47.0938 97.6406 47.1562C97.5781 47.2188 97.5156 47.25 97.4531 47.25L97.0312 47.1562C96.9688 47.3125 96.8594 47.375 96.7031 47.3438C96.5781 47.3438 96.4219 47.3438 96.2344 47.3438C96.0469 47.3438 95.9219 47.3906 95.8594 47.4844C95.7969 47.6094 95.5781 47.6719 95.2031 47.6719C94.8594 47.6719 94.4844 47.4688 94.0781 47.0625C93.6406 47 93.2812 46.7969 93 46.4531C92.7188 46.1406 92.4844 45.8906 92.2969 45.7031C92.1406 45.5469 92.0312 45.4688 91.9688 45.4688C91.9062 45.4688 91.8438 45.4375 91.7812 45.375C91.7188 45.3125 91.6875 45.25 91.6875 45.1875C91.7188 45.125 91.7031 45.0625 91.6406 45C91.6094 44.9688 91.5781 44.9531 91.5469 44.9531C91.5156 44.9844 91.4688 44.9531 91.4062 44.8594C91.3438 44.7969 91.2969 44.75 91.2656 44.7188C91.2656 44.6875 91.1875 44.6406 91.0312 44.5781C90.9688 44.4844 90.9375 44.3906 90.9375 44.2969C90.9688 44.2031 90.9375 44.1094 90.8438 44.0156C90.7812 43.9531 90.6875 43.8281 90.5625 43.6406C90.1562 42.9219 89.8594 42.4688 89.6719 42.2812C89.6094 42.0938 89.5469 41.8906 89.4844 41.6719C89.4531 41.4844 89.3594 41.3438 89.2031 41.25C89.2031 40.9375 89.125 40.6562 88.9688 40.4062C88.8125 40.1562 88.6406 39.6094 88.4531 38.7656C88.2656 37.8906 87.7812 36.5625 87 34.7812L87.0469 34.1719C86.9844 34.0781 86.8594 33.8906 86.6719 33.6094C86.5156 33.2969 86.4062 33.0938 86.3438 33C86.2812 32.9062 86.25 32.7969 86.25 32.6719C86.2812 32.5469 86.2656 32.4219 86.2031 32.2969L86.0625 32.2031C85.9688 31.9531 85.9219 31.7188 85.9219 31.5V31.4531L85.7344 31.3594C85.7031 31.2344 85.6875 31.1094 85.6875 30.9844C85.6875 30.7656 85.5938 30.5469 85.4062 30.3281C85.25 30.0781 85.0312 29.625 84.75 28.9688L84.5625 28.875C84.5 28.7188 84.4688 28.5625 84.4688 28.4062C84.4688 28.2188 84.4375 28.0469 84.375 27.8906C84.2188 27.4531 83.9375 27.0312 83.5312 26.625C83.1562 26.1875 82.7812 25.9688 82.4062 25.9688H82.3594L82.2656 25.7344C82.1406 25.6719 82 25.625 81.8438 25.5938C81.7188 25.5312 81.6094 25.4531 81.5156 25.3594C81.4219 25.3906 81.2812 25.4062 81.0938 25.4062L79.8281 25.3125C79.5469 25.3125 79.3125 25.3594 79.125 25.4531C78.875 25.4531 78.7188 25.4062 78.6562 25.3125C78.625 25.1875 78.5312 25.0938 78.375 25.0312C77.9688 25.4688 77.4688 25.6719 76.875 25.6406C76.5938 26.2656 76.4531 26.9531 76.4531 27.7031C76.4531 28.4219 76.5156 29 76.6406 29.4375C76.7969 29.8438 76.875 30.125 76.875 30.2812L76.7344 30.75L76.9219 31.4062L76.875 32.0156L77.1094 33.6562L76.9688 36.3281L76.6875 40.3594C76.6875 41.1719 76.7812 41.9219 76.9688 42.6094H77.0625L78.0938 42.5156C78.3438 42.5156 78.5312 42.5781 78.6562 42.7031C78.6875 42.8281 78.7031 43 78.7031 43.2188V43.5469C78.6719 43.5781 78.5625 43.625 78.375 43.6875C78.1875 43.75 77.9688 43.8281 77.7188 43.9219C77.5 44.0469 77.2656 44.1406 77.0156 44.2031C76.7969 44.2969 76.6406 44.3906 76.5469 44.4844C76.3594 44.4219 76.2188 44.3906 76.125 44.3906L75 44.5781L73.9688 44.4844C73.75 44.4844 73.6094 44.5156 73.5469 44.5781C73.4844 44.6719 73.3594 44.7188 73.1719 44.7188C72.9844 44.7188 72.875 44.75 72.8438 44.8125C72.8438 44.875 72.7969 44.9219 72.7031 44.9531C72.6094 44.9844 72.5156 44.9844 72.4219 44.9531C72.3281 44.9219 72.2344 44.9062 72.1406 44.9062H72.0938C72.0625 45.0312 71.9531 45.0938 71.7656 45.0938H71.5312C71.4375 44.7188 71.3906 44.4062 71.3906 44.1562C71.3906 43.7188 71.7656 43.4531 72.5156 43.3594C73.2656 43.2969 73.7188 43.1719 73.875 42.9844V42.8438L73.6875 40.2188L73.875 38.4844L73.7344 37.6406L73.875 37.0781L73.7812 36.6094L73.875 35.0156C73.875 34.0156 73.8281 33.2656 73.7344 32.7656L73.5469 31.7344L73.5938 31.0781C73.5938 30.9219 73.5625 30.7656 73.5 30.6094C73.4375 30.4219 73.3906 30.2188 73.3594 30C73.3281 29.7812 73.3125 29.5469 73.3125 29.2969C73.3438 29.0469 73.3125 28.7969 73.2188 28.5469C73.2188 28.2344 73.2812 28.0156 73.4062 27.8906C73.25 27.5781 73.1719 27.1562 73.1719 26.625L73.3125 24.5156L73.125 22.875L73.1719 19.7812L73.0781 18.4688L73.125 17.4844L72.9844 16.5469C72.9844 16.2031 73.0156 15.875 73.0781 15.5625C73.1406 15.25 73.1875 14.8594 73.2188 14.3906C73.2812 13.8906 73.3281 13.3281 73.3594 12.7031C73.3906 12.0781 73.4375 11.5625 73.5 11.1562C73.5938 10.7188 73.6562 10.4062 73.6875 10.2188C73.75 10.0312 73.7812 9.8125 73.7812 9.5625L73.7344 9.14062C73.6094 8.85938 73.3438 8.71875 72.9375 8.71875C72.5625 8.71875 72.2969 8.75 72.1406 8.8125C72.0156 8.875 71.875 8.9375 71.7188 9C71.5938 9.0625 71.3906 9.125 71.1094 9.1875C70.8281 9.21875 70.4375 9.28125 69.9375 9.375C69.4375 9.4375 69.0469 9.46875 68.7656 9.46875C68.4844 9.46875 68.2812 9.45312 68.1562 9.42188C67.9688 9.23438 67.875 8.95312 67.875 8.57812C67.875 8.20312 68.0625 7.95312 68.4375 7.82812C68.8438 7.70312 69.2969 7.625 69.7969 7.59375C70.2969 7.53125 70.7969 7.34375 71.2969 7.03125C71.3594 7.0625 71.4531 7.07812 71.5781 7.07812L72.8906 6.89062C72.9531 6.89062 72.9844 6.85938 72.9844 6.79688C73.0156 6.73437 73.125 6.6875 73.3125 6.65625C73.5312 6.59375 73.7969 6.5625 74.1094 6.5625C74.4531 6.53125 74.8125 6.48438 75.1875 6.42188L75.75 6.23438C75.9062 6.20313 76.0469 6.20313 76.1719 6.23438C76.2969 6.23438 76.4688 6.23438 76.6875 6.23438C76.9062 6.23438 77.1094 6.20313 77.2969 6.14062C77.4844 6.07812 77.6719 6.01563 77.8594 5.95312C78.0469 6.04688 78.2344 6.09375 78.4219 6.09375L80.25 5.85938H81.6094C82.2969 5.85938 83.1406 6.01563 84.1406 6.32812C85.1719 6.60938 85.75 6.75 85.875 6.75C86 6.75 86.125 6.78125 86.25 6.84375C86.4062 6.875 86.5156 6.9375 86.5781 7.03125C86.6719 7.09375 86.7812 7.15625 86.9062 7.21875C87.0625 7.28125 87.1875 7.3125 87.2812 7.3125C87.4062 7.3125 87.5312 7.34375 87.6562 7.40625L87.75 7.59375C88.3125 7.875 88.6719 8.125 88.8281 8.34375C88.9844 8.5625 89.1562 8.6875 89.3438 8.71875L90.1406 10.0312C90.2031 10.0938 90.2656 10.1562 90.3281 10.2188C90.3906 10.25 90.4531 10.3125 90.5156 10.4062C90.5781 10.4688 90.5938 10.5469 90.5625 10.6406C90.5625 10.7344 90.5781 10.8281 90.6094 10.9219C90.6719 10.9844 90.7344 11.0469 90.7969 11.1094C90.8906 11.1406 90.9688 11.2031 91.0312 11.2969C91.0938 11.3594 91.1094 11.4375 91.0781 11.5312C91.0781 11.625 91.0938 11.7188 91.125 11.8125C91.1875 11.9062 91.2344 11.9844 91.2656 12.0469C91.3281 12.1094 91.375 12.1719 91.4062 12.2344C91.4688 12.2969 91.4844 12.3906 91.4531 12.5156C91.4531 12.6094 91.4688 12.7656 91.5 12.9844C91.5625 13.1719 91.6562 13.4062 91.7812 13.6875C91.9375 13.9688 92.0156 14.3281 92.0156 14.7656C92.0156 15.1719 91.9531 15.625 91.8281 16.125C91.7031 16.5938 91.6094 17.0625 91.5469 17.5312C91.3594 17.6875 91.25 17.875 91.2188 18.0938C91.2188 18.3125 91.1719 18.4844 91.0781 18.6094C90.9844 18.7344 90.875 18.8281 90.75 18.8906C90.6562 18.9531 90.5781 19.0312 90.5156 19.125C90.4531 19.1875 90.4062 19.2812 90.375 19.4062C90.3438 19.5 90.2969 19.5781 90.2344 19.6406L90.0469 19.7344C89.9531 19.9219 89.8594 20.1094 89.7656 20.2969C89.6719 20.4531 89.5938 20.6094 89.5312 20.7656C89.3125 20.9531 89.0781 21.125 88.8281 21.2812C88.6094 21.4062 88.3906 21.5625 88.1719 21.75C87.9531 21.9062 87.75 22.0781 87.5625 22.2656C87.375 22.4219 87.1875 22.5625 87 22.6875C86.8125 22.7812 86.6562 22.8281 86.5312 22.8281C86.4375 22.8281 86.3125 22.8594 86.1562 22.9219C86 22.9844 85.8438 23.0938 85.6875 23.25C85.5312 23.4062 85.375 23.5625 85.2188 23.7188H84.8906C84.5469 23.7188 84.2969 23.7656 84.1406 23.8594C84.2031 23.9531 84.3594 24.125 84.6094 24.375C84.8906 24.625 85.1094 24.8438 85.2656 25.0312C85.4531 25.1875 85.5781 25.2656 85.6406 25.2656C85.7344 25.2344 85.7969 25.2344 85.8281 25.2656C85.8594 25.3281 85.8594 25.375 85.8281 25.4062C85.8281 25.4375 85.875 25.5469 85.9688 25.7344C86.0625 25.8906 86.2031 26.0625 86.3906 26.25C86.5781 26.4062 86.7812 26.6562 87 27C87.2188 27.3438 87.4219 27.7656 87.6094 28.2656C87.8281 28.7656 88 29.1562 88.125 29.4375C88.2812 29.7188 88.375 29.8906 88.4062 29.9531C88.4688 29.9844 88.5781 30.1562 88.7344 30.4688C88.9219 30.7812 89.1719 31.4062 89.4844 32.3438C89.8281 33.2812 90.0938 34.0312 90.2812 34.5938C90.5 35.1562 90.6719 35.6406 90.7969 36.0469C90.9219 36.4219 91 36.7188 91.0312 36.9375C91.0625 37.1562 91.1094 37.3594 91.1719 37.5469L91.3594 37.6406C91.4219 37.7344 91.4688 37.9531 91.5 38.2969C91.5312 38.6406 91.5781 38.8906 91.6406 39.0469L91.7812 39.0938C91.8125 39.1875 91.8281 39.3594 91.8281 39.6094C91.8281 39.8594 91.875 40.0469 91.9688 40.1719C92.0938 40.2656 92.1875 40.4062 92.25 40.5938C92.3125 40.75 92.3438 40.8906 92.3438 41.0156C92.375 41.1406 92.4219 41.2969 92.4844 41.4844C92.5781 41.6719 92.7031 41.875 92.8594 42.0938C93.0469 42.3438 93.1406 42.6094 93.1406 42.8906L93.9844 44.0625C94.0469 44.1562 94.0938 44.25 94.125 44.3438C94.1875 44.4688 94.2969 44.6406 94.4531 44.8594C94.6094 45.0781 94.9219 45.3125 95.3906 45.5625C95.8906 45.8438 96.2812 45.9844 96.5625 45.9844C96.875 45.9844 97.0938 45.9531 97.2188 45.8906C97.3438 45.8281 97.5938 45.7344 97.9688 45.6094C98.375 45.4844 98.7656 45.2031 99.1406 44.7656C99.2344 44.4844 99.375 44.25 99.5625 44.0625C99.75 43.875 99.8438 43.6719 99.8438 43.4531L99.7031 42.7969V42.7031C99.7656 42.6406 99.7969 42.5938 99.7969 42.5625L99.5625 41.9531C99.5625 41.9219 99.5938 41.8281 99.6562 41.6719C99.5 41.4531 99.3594 41.25 99.2344 41.0625C99.1094 40.875 98.8906 40.75 98.5781 40.6875L98.625 40.6406C98.625 40.5156 98.5469 40.4688 98.3906 40.5C98.2344 40.5 98.1562 40.4375 98.1562 40.3125C98.0938 40.4062 98.0312 40.4531 97.9688 40.4531H97.7344C97.5469 40.4531 97.375 40.6094 97.2188 40.9219C97.0625 41.2344 96.8125 41.3906 96.4688 41.3906ZM88.6406 16.4531C88.5469 16.3906 88.5 16.0938 88.5 15.5625C88.5 15 88.5625 14.5938 88.6875 14.3438C88.5312 14.25 88.4531 14.1094 88.4531 13.9219L88.125 12.5625C88.125 12.4688 88.1406 12.3906 88.1719 12.3281C87.9844 12.0781 87.8438 11.8125 87.75 11.5312C87.6875 11.25 87.5938 10.9844 87.4688 10.7344C87.3438 10.6406 87.2344 10.5469 87.1406 10.4531C87.0469 10.3594 86.9062 10.2812 86.7188 10.2188C86.7188 9.6875 86.5 9.3125 86.0625 9.09375C85.875 9 85.6719 8.92188 85.4531 8.85938C85.2344 8.76562 85.0312 8.65625 84.8438 8.53125C84.7188 8.5625 84.5312 8.57812 84.2812 8.57812C84.0312 8.57812 83.7656 8.51562 83.4844 8.39062C83.2344 8.23438 82.7656 8.15625 82.0781 8.15625C81.3906 8.15625 80.5938 8.25 79.6875 8.4375C78.7812 8.625 77.875 8.75 76.9688 8.8125C76.875 9.125 76.7656 9.4375 76.6406 9.75C76.5469 10.0312 76.5 10.2344 76.5 10.3594C76.2812 10.6719 76.1719 11.2031 76.1719 11.9531L75.9844 15.2344L76.2188 16.7344L76.125 17.7188C76.125 19 76.1719 19.9688 76.2656 20.625C76.3906 21.2812 76.4531 21.7031 76.4531 21.8906L76.3594 22.7812C76.3594 22.8438 76.3906 23.0469 76.4531 23.3906C76.5469 23.7344 76.625 23.9219 76.6875 23.9531L77.0625 24C77.3125 24 77.5469 23.9531 77.7656 23.8594C77.9844 23.7656 78.3594 23.6562 78.8906 23.5312C79.4219 23.4062 79.9688 23.3438 80.5312 23.3438C81.125 23.3438 81.5469 23.375 81.7969 23.4375C82.1719 23.125 82.6094 22.9219 83.1094 22.8281C83.8594 22.7344 84.4844 22.4375 84.9844 21.9375C85.1719 21.6875 85.4375 21.4844 85.7812 21.3281C85.8438 21.2656 85.875 21.2031 85.875 21.1406C85.875 21.0781 85.9062 21.0156 85.9688 20.9531C86.0312 20.8906 86.0938 20.8594 86.1562 20.8594C86.2188 20.8594 86.3281 20.8125 86.4844 20.7188C86.6406 20.5938 86.8594 20.3125 87.1406 19.875C87.4531 19.4062 87.6719 19.0312 87.7969 18.75L87.9844 18.2812C88.2656 18.125 88.3906 17.9219 88.3594 17.6719C88.3281 17.4219 88.3125 17.2344 88.3125 17.1094L88.6406 16.4531ZM121.969 4.03125C122.625 4.03125 122.953 4.20312 122.953 4.54688C122.953 4.76562 122.891 4.95312 122.766 5.10938L122.25 5.57812C122.062 5.76562 121.859 5.85938 121.641 5.85938C121.453 5.85938 121.328 5.82813 121.266 5.76562C121.203 5.67188 121.109 5.59375 120.984 5.53125C120.703 5.6875 120.406 5.8125 120.094 5.90625C119.781 5.96875 119.5 6.09375 119.25 6.28125C119.094 6.625 119.016 7 119.016 7.40625C119.047 7.78125 119.031 8.09375 118.969 8.34375C118.938 8.5625 118.859 8.76562 118.734 8.95312C118.609 9.10938 118.547 9.20312 118.547 9.23438C118.547 9.26562 118.562 9.57812 118.594 10.1719C118.625 10.7656 118.547 11.25 118.359 11.625C118.203 11.9688 118.125 12.2812 118.125 12.5625L118.266 13.5938V13.7344L118.453 13.9219V13.9688L118.172 15.6562L118.266 15.9844L118.125 16.5C118.062 16.8438 118.031 17.1719 118.031 17.4844V18.5156C118.031 18.9219 117.969 19.2812 117.844 19.5938C117.719 19.875 117.656 20.1406 117.656 20.3906L117.75 21.7031V22.2188C117.75 22.4062 117.719 22.5469 117.656 22.6406C117.594 22.7344 117.562 22.8125 117.562 22.875L117.656 22.9688C117.594 23.2812 117.562 23.5156 117.562 23.6719L117.656 24.3281L117.375 26.4844L117.469 26.9062L117.375 27.2812L117.656 28.0312C117.625 28.0625 117.609 28.25 117.609 28.5938C117.609 28.9062 117.562 29.1094 117.469 29.2031C117.562 29.4844 117.609 29.7656 117.609 30.0469L117.516 31.5938C117.516 31.875 117.531 32.0781 117.562 32.2031C117.5 32.3281 117.469 32.4375 117.469 32.5312L117.656 33L117.422 33.3281C117.516 33.5781 117.609 33.8281 117.703 34.0781C117.797 34.3281 117.875 34.5781 117.938 34.8281C117.625 35.0781 117.438 35.3594 117.375 35.6719C117.344 35.6406 117.266 35.625 117.141 35.625C117.016 35.625 116.875 35.6875 116.719 35.8125C116.562 35.9375 116.391 36 116.203 36L116.156 35.9531C115.906 35.9219 115.703 35.7344 115.547 35.3906C115.391 35.0469 115.219 34.7656 115.031 34.5469C114.875 34.2969 114.734 33.9844 114.609 33.6094C114.453 33.3906 114.266 33.1562 114.047 32.9062C113.859 32.625 113.766 32.3594 113.766 32.1094C113.516 32.0469 113.359 31.8906 113.297 31.6406C113.266 31.3594 113.188 31.1406 113.062 30.9844C112.844 30.9531 112.781 30.8281 112.875 30.6094C112.781 30.5156 112.672 30.4688 112.547 30.4688C112.453 30.4375 112.344 30.3125 112.219 30.0938C112.125 29.875 112.031 29.7344 111.938 29.6719C111.844 29.5781 111.766 29.4844 111.703 29.3906C111.641 29.2656 111.609 29.1719 111.609 29.1094C111.641 29.0469 111.562 28.8906 111.375 28.6406C111.219 28.3906 111 28.1562 110.719 27.9375C110.5 27.6875 110.344 27.4062 110.25 27.0938C110.188 26.7812 109.953 26.4844 109.547 26.2031C109.484 25.8594 109.312 25.5625 109.031 25.3125C108.75 25.0312 108.641 24.7031 108.703 24.3281C108.391 24.0781 108.203 23.8906 108.141 23.7656C108.078 23.6094 108.016 23.4844 107.953 23.3906C107.891 23.2969 107.812 23.1875 107.719 23.0625C107.656 22.9375 107.594 22.8281 107.531 22.7344C107.469 22.6406 107.438 22.5625 107.438 22.5C107.438 22.4375 107.469 22.375 107.531 22.3125C107.5 22.25 107.469 22.2031 107.438 22.1719C107.406 22.1094 107.359 22.0312 107.297 21.9375C107.266 21.8438 107.219 21.7656 107.156 21.7031C107.094 21.6406 107.031 21.5781 106.969 21.5156C106.938 21.4219 106.922 21.3438 106.922 21.2812C106.953 21.2188 106.938 21.1562 106.875 21.0938C106.656 21 106.516 20.8125 106.453 20.5312C106.391 20.2188 106.281 19.9688 106.125 19.7812C105.969 19.375 105.781 19.0156 105.562 18.7031C105.375 18.3594 105.25 18.0469 105.188 17.7656C105.125 17.4844 105.062 17.3438 105 17.3438C104.969 17.3438 104.922 17.3125 104.859 17.25C104.797 17.1875 104.781 17.125 104.812 17.0625C104.844 17 104.812 16.9375 104.719 16.875C104.625 16.7188 104.5 16.6094 104.344 16.5469C104.219 16.4531 104.094 16.2969 103.969 16.0781C103.844 15.8594 103.734 15.5938 103.641 15.2812C103.547 14.9688 103.312 14.7969 102.938 14.7656C102.812 14.8594 102.75 14.9844 102.75 15.1406L103.031 16.1719L102.938 17.3906L103.219 19.7812L103.125 20.6719L103.359 21.6094L103.266 22.0312C103.266 22.7188 103.344 23.3594 103.5 23.9531C103.719 24.7344 103.828 25.6875 103.828 26.8125V29.3906L103.922 30L103.875 31.0781L104.062 37.9688C104.062 38.7188 104.359 39.0938 104.953 39.0938L105.844 38.9531C106.375 38.9531 106.641 39.2031 106.641 39.7031C106.641 39.8594 106.531 40.0312 106.312 40.2188C106 40.5 105.734 40.6406 105.516 40.6406H105.234L103.734 40.5469C102.797 40.5469 102.094 40.7344 101.625 41.1094C101.531 41.1406 101.438 41.1406 101.344 41.1094C101.25 41.1094 101.156 41.1094 101.062 41.1094L100.172 41.2969L98.4844 41.5312C98.0469 41.5312 97.8281 41.3594 97.8281 41.0156C97.8281 40.8906 97.8906 40.75 98.0156 40.5938C98.1406 40.4375 98.2656 40.3594 98.3906 40.3594L98.6719 40.4062C98.7344 40.4062 98.7969 40.3906 98.8594 40.3594C98.9219 40.2969 99.0312 40.2344 99.1875 40.1719C99.3438 40.1094 99.5469 40.0625 99.7969 40.0312C100.078 39.9688 100.344 39.8906 100.594 39.7969C100.844 39.6094 101.062 39.4062 101.25 39.1875C101.125 38.5938 101.062 37.9375 101.062 37.2188L101.156 36.1875C101.156 36.1562 101.125 36.0938 101.062 36C101.031 35.9062 101 35.7344 100.969 35.4844C100.938 35.2344 100.906 34.9688 100.875 34.6875C100.875 34.4062 100.859 34.125 100.828 33.8438C100.797 33.5625 100.781 33.375 100.781 33.2812L100.922 31.9219L100.781 29.6719C100.781 29.2031 100.797 28.7344 100.828 28.2656C100.891 27.7969 100.875 27.3438 100.781 26.9062L100.594 24.6094C100.562 24.4844 100.531 24.375 100.5 24.2812C100.469 24.1875 100.453 24.0625 100.453 23.9062L100.5 22.8281L100.312 21.375L100.406 20.7656L100.219 19.4531L100.312 18.5156L100.125 14.25L99.9844 10.1719V9.32812C99.9844 9.07812 100 8.82812 100.031 8.57812C100.094 8.51562 100.125 8.45312 100.125 8.39062L100.031 8.20312C100.031 8.07812 100.078 7.90625 100.172 7.6875C100.266 7.4375 100.281 7.15625 100.219 6.84375C100.188 6.5 100.328 6.29688 100.641 6.23438C100.703 6.23438 100.719 6.15625 100.688 6C100.75 5.96875 100.953 5.95312 101.297 5.95312C101.859 5.95312 102.297 6.51562 102.609 7.64062C102.734 7.79688 102.984 8.01562 103.359 8.29688C103.391 8.60938 103.5 8.89062 103.688 9.14062C103.875 9.35938 104.016 9.57812 104.109 9.79688C104.234 10.0156 104.312 10.1875 104.344 10.3125C104.406 10.4375 104.469 10.5625 104.531 10.6875L105.047 11.3438C105.109 11.4688 105.141 11.5938 105.141 11.7188C105.141 11.8438 105.172 12 105.234 12.1875C105.328 12.3438 105.469 12.5781 105.656 12.8906C105.875 13.2031 106.047 13.4844 106.172 13.7344C106.297 13.9531 106.406 14.1719 106.5 14.3906C106.594 14.6719 106.734 14.9531 106.922 15.2344C107.141 15.5156 107.25 15.7344 107.25 15.8906C107.25 16.0156 107.297 16.1719 107.391 16.3594C107.484 16.5156 107.609 16.7031 107.766 16.9219C107.922 17.1094 108.031 17.2812 108.094 17.4375C108.188 17.5938 108.234 17.7344 108.234 17.8594C108.234 17.9531 108.25 18.0312 108.281 18.0938C108.344 18.125 108.391 18.1562 108.422 18.1875C108.453 18.1875 108.484 18.2188 108.516 18.2812C108.578 18.3438 108.609 18.4219 108.609 18.5156C108.609 18.6094 108.641 18.7031 108.703 18.7969L108.891 18.8906C108.953 19.0156 109.031 19.2656 109.125 19.6406C109.25 19.9844 109.422 20.3125 109.641 20.625C109.891 20.9062 110.109 21.2812 110.297 21.75C110.516 22.2188 110.734 22.5938 110.953 22.875L111.281 23.3906C111.344 23.5156 111.391 23.6406 111.422 23.7656C111.453 23.8906 111.5 24 111.562 24.0938L111.938 24.5156C112.031 24.6719 112.094 24.8281 112.125 24.9844C112.188 25.1406 112.266 25.2812 112.359 25.4062L112.547 25.5C112.609 25.625 112.75 25.8594 112.969 26.2031C113.188 26.5469 113.469 27.0156 113.812 27.6094C114.156 28.1719 114.438 28.5781 114.656 28.8281C114.906 29.0781 115.078 29.3594 115.172 29.6719C115.297 29.9531 115.516 30.1406 115.828 30.2344C115.984 30.1719 116.047 30.0781 116.016 29.9531C115.984 29.7969 115.969 29.6562 115.969 29.5312L116.062 28.2656L115.969 25.125C115.969 24.6875 116 24.2656 116.062 23.8594C116.156 23.4531 116.219 23.0938 116.25 22.7812C116.281 22.4688 116.281 22.2188 116.25 22.0312C116.25 21.8438 116.25 21.6562 116.25 21.4688L116.438 20.3906V19.6406L116.625 18.4688L116.531 17.0625C116.531 16.375 116.562 15.6875 116.625 15C116.688 15 116.719 14.9844 116.719 14.9531L116.625 13.7812L116.719 12.1875L116.672 10.7344C116.672 10.2344 116.719 9.75 116.812 9.28125C116.938 8.78125 117.016 8.35938 117.047 8.01562C117.109 7.67188 117.156 7.45312 117.188 7.35938C117.25 7.23438 117.281 7.125 117.281 7.03125C117.281 6.90625 117.25 6.8125 117.188 6.75L117.422 6C117.422 5.625 117.328 5.40625 117.141 5.34375C116.953 5.25 116.766 5.17188 116.578 5.10938C116.422 5.04687 116.312 4.98438 116.25 4.92188C116.188 4.85937 116.078 4.84375 115.922 4.875C115.797 4.90625 115.672 4.92188 115.547 4.92188C115.422 4.92188 115.328 4.84375 115.266 4.6875C115.266 4.5625 115.203 4.48437 115.078 4.45312C115.109 4.17188 115.234 3.98438 115.453 3.89062C115.672 3.79688 115.844 3.65625 115.969 3.46875C116.156 3.53125 116.328 3.5625 116.484 3.5625L117.281 3.375C117.531 3.375 117.75 3.4375 117.938 3.5625C118.125 3.6875 118.297 3.78125 118.453 3.84375C118.641 3.90625 118.797 3.9375 118.922 3.9375C119.078 3.90625 119.234 3.89062 119.391 3.89062H119.578L119.625 3.98438L119.859 3.9375L120.75 4.07812L121.969 4.03125ZM128.484 8.39062L128.625 7.54688C128.594 7.29688 128.625 7.07812 128.719 6.89062C128.844 6.67188 128.922 6.51562 128.953 6.42188C128.984 6.29688 128.984 6.20313 128.953 6.14062C128.953 6.04688 128.953 5.96875 128.953 5.90625L129.141 5.39062L129.047 4.5C129.047 3.28125 129.141 2.42187 129.328 1.92188C129.516 1.42188 129.609 1.04688 129.609 0.796875C129.766 0.703125 129.922 0.59375 130.078 0.46875C130.234 0.3125 130.406 0.203125 130.594 0.140625C130.75 0.203125 130.891 0.265625 131.016 0.328125C131.141 0.359375 131.281 0.453125 131.438 0.609375C131.625 0.765625 131.812 1.14063 132 1.73438C132.188 2.29688 132.375 2.90625 132.562 3.5625C132.781 4.21875 132.984 4.875 133.172 5.53125C133.391 6.15625 133.641 6.625 133.922 6.9375C133.922 7.78125 134.062 8.375 134.344 8.71875C134.312 8.78125 134.297 8.875 134.297 9C134.297 9.09375 134.344 9.35938 134.438 9.79688C134.938 12.0156 135.312 13.25 135.562 13.5V13.7812L136.125 15.7969C136.219 16.1719 136.297 16.5469 136.359 16.9219C136.422 17.2656 136.594 17.5781 136.875 17.8594C136.875 18.4219 137.031 18.875 137.344 19.2188C137.406 19.5625 137.469 19.9844 137.531 20.4844C137.625 20.9844 137.797 21.3594 138.047 21.6094C138.203 22.8906 138.406 23.7031 138.656 24.0469C138.938 24.3594 139.062 24.6406 139.031 24.8906C138.938 25.2344 139 25.5938 139.219 25.9688C139.438 26.3438 139.547 26.6406 139.547 26.8594C139.578 27.0781 139.672 27.2656 139.828 27.4219C140.172 27.4219 140.469 27.2812 140.719 27C141 26.7188 141.172 26.4062 141.234 26.0625C141.328 26.0625 141.5 25.8906 141.75 25.5469C143.031 23.5469 143.859 22.4531 144.234 22.2656C144.297 21.9219 144.422 21.6719 144.609 21.5156C144.828 21.3281 144.922 21.0625 144.891 20.7188C145.016 20.625 145.109 20.5312 145.172 20.4375C145.266 20.3125 145.391 20.2188 145.547 20.1562C145.766 19.5 146.094 19.0312 146.531 18.75C146.562 18.6562 146.578 18.5625 146.578 18.4688C146.609 18.3438 146.656 18.2344 146.719 18.1406C146.906 18.0781 147.031 17.9844 147.094 17.8594C147.188 17.7031 147.312 17.5938 147.469 17.5312V17.4844C147.469 17.2969 147.547 17.1562 147.703 17.0625C147.891 16.9375 148.016 16.8125 148.078 16.6875C148.172 16.5312 148.25 16.2969 148.312 15.9844C148.406 15.6719 148.516 15.4844 148.641 15.4219L148.875 15.3281C149.094 15.0781 149.25 14.7812 149.344 14.4375C149.469 14.0625 149.672 13.75 149.953 13.5V13.2188H150.141C150.203 13.1562 150.234 13.0469 150.234 12.8906C150.266 12.7344 150.359 12.6406 150.516 12.6094L150.469 12.5156C150.469 12.0781 150.594 11.7344 150.844 11.4844C151.094 11.2031 151.203 10.8125 151.172 10.3125L151.547 10.0312C151.609 9.96875 151.641 9.89062 151.641 9.79688C151.641 9.67188 151.656 9.57812 151.688 9.51562L152.156 8.8125C152.312 8.5625 152.438 8.29688 152.531 8.01562C152.625 7.70312 152.812 7.46875 153.094 7.3125V7.125C153.094 6.875 153.172 6.64062 153.328 6.42188C153.516 6.17187 153.641 5.96875 153.703 5.8125C153.766 5.625 153.797 5.46875 153.797 5.34375C153.828 5.1875 153.859 5.07813 153.891 5.01562C153.953 4.95312 154 4.92188 154.031 4.92188C154.219 4.92188 154.281 4.8125 154.219 4.59375C154.156 4.375 154.203 4.26562 154.359 4.26562C154.547 4.26562 154.641 4.1875 154.641 4.03125L154.828 2.76562C154.828 2.57812 154.812 2.4375 154.781 2.34375C154.969 2.21875 155.062 2.07813 155.062 1.92188C155.062 1.76562 155.031 1.65625 154.969 1.59375C155 1.46875 155.062 1.39062 155.156 1.35938C155.25 1.29687 155.328 1.23438 155.391 1.17188V0.984375C155.391 0.734375 155.484 0.546875 155.672 0.421875C155.891 0.265625 156.078 0.125 156.234 0C156.453 0.03125 156.625 0.125 156.75 0.28125C156.875 0.40625 157.016 0.546875 157.172 0.703125C157.016 0.890625 156.938 1.23438 156.938 1.73438C156.938 2.20312 156.875 2.57812 156.75 2.85938C156.656 3.14062 156.609 3.40625 156.609 3.65625C156.609 3.90625 156.656 4.125 156.75 4.3125C156.844 4.46875 156.891 4.625 156.891 4.78125L156.797 5.48438L156.891 6.9375C156.891 7.21875 156.859 7.4375 156.797 7.59375C156.828 7.78125 156.875 7.95312 156.938 8.10938C157 8.23438 157.047 8.39062 157.078 8.57812C157.109 8.73438 157.109 8.90625 157.078 9.09375C157.078 9.25 157.078 9.40625 157.078 9.5625L157.359 10.4531C157.359 10.5156 157.344 10.5469 157.312 10.5469C157.281 10.5469 157.266 10.6094 157.266 10.7344C157.266 10.8594 157.328 11.1875 157.453 11.7188C157.609 12.2188 157.688 12.6875 157.688 13.125V13.2188L157.594 13.2656L157.734 13.7812L157.594 14.4375L157.875 15.375L157.781 16.4531C157.781 16.5469 157.844 16.9062 157.969 17.5312L157.922 18.2344C157.922 18.5469 157.969 18.7812 158.062 18.9375C158.188 19.0625 158.281 19.25 158.344 19.5L158.438 20.5312C158.469 20.6875 158.5 20.8438 158.531 21C158.562 21.125 158.594 21.2969 158.625 21.5156C158.656 21.7031 158.656 21.9219 158.625 22.1719C158.594 22.3906 158.578 22.6719 158.578 23.0156C158.578 23.3594 158.656 23.8438 158.812 24.4688C158.906 25.7812 159.047 26.8281 159.234 27.6094C159.453 28.3594 159.562 28.8906 159.562 29.2031C159.562 29.4844 159.5 29.7344 159.375 29.9531C159.656 30.4531 159.781 31.0312 159.75 31.6875C159.75 32.3438 159.781 32.8594 159.844 33.2344C159.938 33.5781 160.016 33.8438 160.078 34.0312C160.141 34.1875 160.172 34.4062 160.172 34.6875C160.172 34.9375 160.219 35.25 160.312 35.625C160.438 35.9688 160.516 36.3125 160.547 36.6562L160.922 36.7031C161.422 36.7031 161.859 36.6406 162.234 36.5156C162.641 36.3906 162.906 36.2812 163.031 36.1875C163.156 36.0938 163.297 36.0625 163.453 36.0938C163.609 36.0938 163.734 36.0938 163.828 36.0938L164.438 36C164.594 36 164.703 36.0625 164.766 36.1875C164.828 36.2812 164.938 36.3438 165.094 36.375C165.156 36.4375 165.188 36.5625 165.188 36.75C165.188 36.9062 165.156 37.0781 165.094 37.2656C164.812 37.4531 164.594 37.5469 164.438 37.5469C164.312 37.5469 164.219 37.5156 164.156 37.4531C163.844 37.7344 163.625 37.8906 163.5 37.9219C163.406 37.9219 163.188 37.9219 162.844 37.9219L162.656 37.9688C162.438 37.9688 162.219 38.0156 162 38.1094C161.812 38.2031 161.609 38.2656 161.391 38.2969L160.641 38.3906C160.359 38.4844 160.094 38.625 159.844 38.8125C159.594 38.9688 159.312 39.0469 159 39.0469L157.969 38.9531C157.781 38.9531 157.453 39.0469 156.984 39.2344L156.422 39.1875C156.172 39.1875 155.906 39.25 155.625 39.375C155.375 39.5 155.094 39.5625 154.781 39.5625H154.547C154.234 39.3125 154.078 39.0469 154.078 38.7656C154.078 38.4844 154.109 38.25 154.172 38.0625C154.359 37.9062 154.875 37.7656 155.719 37.6406C156.594 37.5156 157.172 37.3594 157.453 37.1719C157.391 36.9531 157.359 36.75 157.359 36.5625C157.391 36.3438 157.375 36.1094 157.312 35.8594C157.281 35.6094 157.25 35.4688 157.219 35.4375C157.188 35.375 157.172 35.2188 157.172 34.9688C157.172 34.7188 157.109 34.4531 156.984 34.1719C156.891 33.8906 156.812 33.6094 156.75 33.3281C156.688 33.0156 156.656 32.6719 156.656 32.2969C156.688 31.8906 156.688 31.5 156.656 31.125L156.469 29.9531L156.562 29.625C156.562 29.2812 156.484 28.8594 156.328 28.3594C156.203 27.8594 156.109 27.5 156.047 27.2812C156.016 27.0312 156.016 26.8594 156.047 26.7656C156.078 26.6406 156.094 26.5156 156.094 26.3906C156.094 26.2656 156.047 26.1562 155.953 26.0625C156.016 25.9375 156.047 25.8125 156.047 25.6875C156.047 25.5312 156.078 25.4062 156.141 25.3125C155.953 24.5312 155.844 23.75 155.812 22.9688C155.812 22.1562 155.766 21.375 155.672 20.625L155.484 20.0625C155.453 19.9375 155.438 19.8125 155.438 19.6875C155.469 19.5312 155.484 19.3906 155.484 19.2656L155.297 18.4219L155.391 18.0469V17.625C155.391 16.7812 155.312 16.3125 155.156 16.2188C155.25 16.125 155.266 15.9844 155.203 15.7969C155.172 15.5781 155.203 15.4219 155.297 15.3281C155.203 15.1094 155.156 14.8594 155.156 14.5781L155.203 13.2656C155.203 13.0469 155.156 12.7188 155.062 12.2812C155 11.8125 154.969 11.5156 154.969 11.3906C155 11.2656 155 11.1094 154.969 10.9219L154.641 10.3125V9.75C154.641 9.46875 154.578 9.28125 154.453 9.1875H154.406C154.219 9.15625 154.031 9.32812 153.844 9.70312C153.406 9.95312 153.188 10.2031 153.188 10.4531C153.188 10.7031 153.141 10.8281 153.047 10.8281C152.953 10.8281 152.875 10.8594 152.812 10.9219C152.75 10.9844 152.734 11.0469 152.766 11.1094C152.797 11.1719 152.75 11.2969 152.625 11.4844C152.5 11.6406 152.422 11.7969 152.391 11.9531C152.359 12.0781 152.312 12.2031 152.25 12.3281C152.188 12.4219 152.109 12.5156 152.016 12.6094C151.953 12.6719 151.891 12.75 151.828 12.8438C151.797 12.9375 151.781 13.0469 151.781 13.1719C151.812 13.2969 151.828 13.4219 151.828 13.5469C151.828 13.6719 151.734 13.8594 151.547 14.1094C151.359 14.3594 151.234 14.5938 151.172 14.8125C151.078 14.8438 151 14.8906 150.938 14.9531C150.906 14.9844 150.812 15 150.656 15C150.594 15.5 150.438 15.8906 150.188 16.1719C149.938 16.4531 149.703 16.7969 149.484 17.2031C149.328 17.3281 149.125 17.4375 148.875 17.5312C148.844 17.625 148.781 17.7656 148.688 17.9531C148.625 18.1094 148.516 18.3438 148.359 18.6562C148.234 18.9375 148.203 19.1562 148.266 19.3125C148.234 19.375 148.188 19.4062 148.125 19.4062C148.062 19.4062 148 19.4375 147.938 19.5C147.875 19.5625 147.844 19.6562 147.844 19.7812C147.844 19.875 147.75 19.9531 147.562 20.0156C147.219 20.1719 147.062 20.3438 147.094 20.5312C147.156 20.7188 147.109 20.9219 146.953 21.1406C146.859 21.5469 146.672 21.8594 146.391 22.0781C146.109 22.2656 145.922 22.4219 145.828 22.5469C145.766 22.6719 145.719 22.7969 145.688 22.9219C145.656 23.0156 145.609 23.125 145.547 23.25L145.359 23.3438C144.922 24.2188 144.656 24.7031 144.562 24.7969C144.438 24.9219 144.156 25.3125 143.719 25.9688L143.203 26.7656C143.047 26.9844 142.969 27.1094 142.969 27.1406C142.25 27.3594 141.812 27.9375 141.656 28.875C141.281 29.0938 141.016 29.2812 140.859 29.4375C140.234 30.7812 139.656 31.4531 139.125 31.4531C138.781 31.4531 138.531 31.3906 138.375 31.2656C138.25 31.1094 138.078 31 137.859 30.9375C137.672 30.4062 137.5 30.0781 137.344 29.9531V29.5781C137.344 29.1719 137.297 28.9062 137.203 28.7812C137.109 28.6562 137 28.4219 136.875 28.0781L136.406 25.7344C136.375 25.5781 136.297 25.4688 136.172 25.4062C136.047 25.3125 135.969 25.0938 135.938 24.75C135.906 24.375 135.812 24.1406 135.656 24.0469L135.703 23.7656C135.703 23.4531 135.547 22.9375 135.234 22.2188C134.953 21.5 134.75 21.1094 134.625 21.0469C134.656 21.0156 134.672 20.9062 134.672 20.7188C134.672 20.5312 134.609 20.1719 134.484 19.6406C134.359 19.0781 134.234 18.6719 134.109 18.4219C133.984 18.1719 133.906 17.9062 133.875 17.625C133.844 17.3438 133.781 17.0469 133.688 16.7344C133.594 16.4219 133.547 16.1719 133.547 15.9844V15.9375L133.359 15.7031L133.266 15.0469C133.234 14.8906 133.188 14.7188 133.125 14.5312C133.062 14.3438 133 14.1562 132.938 13.9688L132.844 13.3125C132.75 13.125 132.641 12.9531 132.516 12.7969C132.391 12.6094 132.266 12.4219 132.141 12.2344C132.141 11.9844 132.141 11.7344 132.141 11.4844C132.141 11.2344 132.062 11.0156 131.906 10.8281V10.4531C131.906 9.82812 131.719 9.51562 131.344 9.51562C131.25 9.51562 131.203 9.60938 131.203 9.79688C131.234 9.95312 131.25 10.0625 131.25 10.125V10.2188C131.125 10.3125 131.062 10.5312 131.062 10.875C131.062 11.1875 131.156 11.4062 131.344 11.5312C131.188 11.9062 131.109 12.3594 131.109 12.8906C131.141 13.4219 131.125 13.9062 131.062 14.3438L130.969 15L131.062 15.4688L130.875 16.3125L130.969 17.2969V17.9531C130.969 18.1719 130.938 18.375 130.875 18.5625L130.688 19.125C130.625 19.4062 130.609 19.7031 130.641 20.0156C130.672 20.2969 130.656 20.5625 130.594 20.8125C130.531 21.0312 130.5 21.1719 130.5 21.2344C130.438 21.4844 130.406 21.6719 130.406 21.7969V22.2188C130.406 22.5 130.359 22.7812 130.266 23.0625C130.203 23.3438 130.156 23.6406 130.125 23.9531C130.094 24.2344 130.078 24.5156 130.078 24.7969C130.109 25.0781 130.094 25.3438 130.031 25.5938C130 25.8125 129.969 25.9688 129.938 26.0625C129.938 26.1562 129.922 26.25 129.891 26.3438C129.891 26.4062 129.891 26.4844 129.891 26.5781V27.0469L129.703 27.9844C129.641 28.1719 129.609 28.3594 129.609 28.5469C129.641 28.7344 129.656 28.9844 129.656 29.2969C129.656 29.5781 129.625 29.7969 129.562 29.9531C129.312 30.3594 129.203 30.7969 129.234 31.2656C129.297 31.7344 129.266 32.1875 129.141 32.625C129.016 33.0312 128.953 33.5781 128.953 34.2656C128.953 34.9531 128.875 35.6875 128.719 36.4688C129.125 36.9375 129.422 37.1719 129.609 37.1719C129.828 37.1719 129.938 37.2656 129.938 37.4531C129.938 37.5156 130 37.5781 130.125 37.6406C130.094 37.8594 130.047 38.0156 129.984 38.1094C129.922 38.1719 129.906 38.3281 129.938 38.5781H129.844L129.516 38.6719H129.422C129.391 38.6406 129.344 38.625 129.281 38.625L129.141 38.8594C129.016 38.7969 128.781 38.7656 128.438 38.7656C128.125 38.7656 127.922 38.8281 127.828 38.9531C127.578 38.8281 127.25 38.7656 126.844 38.7656C126.469 38.7656 126.25 38.8438 126.188 39C126.156 39.125 126.062 39.2031 125.906 39.2344C125.875 39.2031 125.812 39.1875 125.719 39.1875L123.609 39.4688H122.719C122.188 39.4688 121.891 39.4219 121.828 39.3281C121.734 39.2031 121.672 39.125 121.641 39.0938C121.609 39.0312 121.531 38.9844 121.406 38.9531C121.375 38.9219 121.359 38.875 121.359 38.8125L121.547 38.4375C121.453 38.3438 121.406 38.2656 121.406 38.2031C121.406 38.1094 121.438 38 121.5 37.875C121.906 37.5938 122.344 37.4531 122.812 37.4531C123.312 37.4531 123.781 37.3594 124.219 37.1719C124.312 37.2031 124.469 37.2188 124.688 37.2188C124.938 37.2188 125.156 37.1875 125.344 37.125C125.531 37.0625 125.719 37 125.906 36.9375C125.938 36.8125 125.953 36.6562 125.953 36.4688L125.906 35.4375L126.094 34.0781L126 33.375C126 33.2188 126.031 33 126.094 32.7188C126.188 32.4062 126.219 32.1562 126.188 31.9688C126.188 31.7812 126.203 31.5938 126.234 31.4062C126.266 31.1875 126.297 31 126.328 30.8438C126.391 30.6875 126.453 30.5156 126.516 30.3281C126.578 30.1406 126.609 29.7812 126.609 29.25C126.609 28.6875 126.688 28.1406 126.844 27.6094C127.031 27.0469 127.125 26.5 127.125 25.9688L127.031 25.4062C127.031 25.3125 127.047 25.25 127.078 25.2188C127.141 25.1875 127.188 25.0625 127.219 24.8438C127.25 24.625 127.266 24.3594 127.266 24.0469C127.297 23.7031 127.344 23.3281 127.406 22.9219C127.5 22.4844 127.547 22.1562 127.547 21.9375L127.453 21.4219C127.453 21.2656 127.469 21.1094 127.5 20.9531C127.75 20.2656 127.875 19.5469 127.875 18.7969V18.1406C127.875 18.0469 127.859 17.9531 127.828 17.8594C128.016 17.2969 128.109 16.9062 128.109 16.6875V15.9844L128.297 15.1406L128.203 14.625L128.297 14.0625L128.203 13.4531L128.391 12.6094L128.344 11.4375L128.578 9.79688C128.578 9.73438 128.547 9.67188 128.484 9.60938C128.453 9.54688 128.453 9.5 128.484 9.46875C128.516 9.40625 128.531 9.32812 128.531 9.23438L128.484 8.39062ZM189.234 14.5781C189.234 15.4219 189.453 16.0312 189.891 16.4062V16.5469C189.891 16.7969 189.969 17.1406 190.125 17.5781C190.312 18.0156 190.406 18.5156 190.406 19.0781C190.406 19.6406 190.531 20.0156 190.781 20.2031C190.719 20.2969 190.641 20.3906 190.547 20.4844C190.453 20.5781 190.406 20.6719 190.406 20.7656C190.406 20.8594 190.438 20.9219 190.5 20.9531C190.594 20.9531 190.641 21 190.641 21.0938L190.594 21.1875C190.625 21.4375 190.609 21.6719 190.547 21.8906C190.484 22.1094 190.453 22.3281 190.453 22.5469C190.453 22.7344 190.469 22.875 190.5 22.9688L190.125 23.7656C190.156 23.8906 190.172 24.0469 190.172 24.2344C190.172 24.7969 189.891 25.1875 189.328 25.4062C189.359 25.5312 189.375 25.7344 189.375 26.0156C189.375 26.2969 189.328 26.5938 189.234 26.9062C189.172 27.1875 189.125 27.4844 189.094 27.7969C188.719 27.9844 188.547 28.25 188.578 28.5938C188.297 28.6875 188.062 28.8594 187.875 29.1094C187.719 29.3281 187.562 29.5156 187.406 29.6719C187.25 29.8281 187.125 29.9375 187.031 30C186.938 30.0312 186.844 30.1094 186.75 30.2344C186.656 30.3281 186.578 30.4531 186.516 30.6094C186.422 30.8594 186.281 31.0781 186.094 31.2656C185.906 31.3906 185.812 31.5156 185.812 31.6406C185.812 31.7344 185.719 31.9062 185.531 32.1562C185.344 32.375 185.016 32.5938 184.547 32.8125C184.109 33 183.734 33.2656 183.422 33.6094H183.281L182.766 33.7969C182.672 33.8906 182.578 34.0312 182.484 34.2188C182.328 34.4375 181.969 34.5 181.406 34.4062C181.219 34.5 181 34.625 180.75 34.7812C180.531 34.9062 180.281 34.9688 180 34.9688C179.75 34.9688 179.625 35.0312 179.625 35.1562C179.625 35.25 179.516 35.2969 179.297 35.2969C179.109 35.2969 178.969 35.3281 178.875 35.3906H178.828L178.172 35.2031C177.859 35.3281 177.578 35.3906 177.328 35.3906L176.156 35.1094C176.094 35.1094 176 35.1406 175.875 35.2031C175.75 35.0469 175.594 34.9531 175.406 34.9219C175.219 34.8906 175.062 34.8281 174.938 34.7344C174.844 34.7656 174.719 34.8594 174.562 35.0156H174.469L173.578 35.0625C173.234 35.0625 173.031 34.9531 172.969 34.7344C172.656 34.8281 172.266 34.7188 171.797 34.4062C171.359 34.0625 171.109 33.75 171.047 33.4688H170.906L170.344 33.2812C170.25 33.1562 170.156 33.0469 170.062 32.9531C169.969 32.8281 169.906 32.6875 169.875 32.5312C169.625 32.4688 169.422 32.3594 169.266 32.2031C169.109 32.0156 168.875 31.9219 168.562 31.9219C168.5 31.7344 168.391 31.5938 168.234 31.5C168.109 31.4062 167.984 31.3125 167.859 31.2188C167.672 30.5938 167.297 30.0156 166.734 29.4844C166.141 27.8906 165.75 26.9062 165.562 26.5312C165.406 26.1562 165.328 25.9375 165.328 25.875L165.469 25.4062L165.375 25.1719C165.375 25.1094 165.391 25.0781 165.422 25.0781C165.453 25.0781 165.469 25.0469 165.469 24.9844L165.281 23.9062L165.375 23.2031L165.141 22.6875L165.469 21.375V20.8125C165.469 20.6562 165.5 20.5156 165.562 20.3906C165.625 20.2344 165.688 20.0312 165.75 19.7812C165.812 19.5 165.844 19.1719 165.844 18.7969C165.844 18.3906 165.891 18.0312 165.984 17.7188C166.078 17.375 166.188 17.1562 166.312 17.0625C166.469 16.9375 166.516 16.6875 166.453 16.3125C166.828 15.8125 167.078 15.3438 167.203 14.9062C167.359 14.4375 167.438 14.1719 167.438 14.1094C167.438 13.9219 167.484 13.7812 167.578 13.6875C167.734 13.5938 167.797 13.4688 167.766 13.3125C167.766 13.1562 167.812 13.0469 167.906 12.9844C168 12.9219 168.094 12.8281 168.188 12.7031C168.281 12.5781 168.375 12.4062 168.469 12.1875C168.562 11.9688 168.688 11.75 168.844 11.5312L169.031 11.4375C169.125 11.1562 169.703 10.6406 170.766 9.89062C170.859 9.79688 170.906 9.70312 170.906 9.60938C170.938 9.51562 170.984 9.4375 171.047 9.375C171.172 9.34375 171.422 9.23438 171.797 9.04688L171.891 8.85938L172.641 8.48438L172.688 8.29688C172.75 8.26562 172.828 8.26562 172.922 8.29688C173.016 8.29688 173.219 8.23438 173.531 8.10938C173.875 7.95312 174.266 7.75 174.703 7.5C175.141 7.21875 175.547 7.07812 175.922 7.07812C176.328 7.07812 176.562 7.03125 176.625 6.9375C176.719 6.84375 176.844 6.78125 177 6.75C177.188 6.6875 177.391 6.67188 177.609 6.70312C177.828 6.73437 178.016 6.65625 178.172 6.46875H178.219C178.375 6.46875 178.5 6.5625 178.594 6.75C178.969 6.5625 179.312 6.46875 179.625 6.46875C179.938 6.46875 180.094 6.5 180.094 6.5625C180.094 6.59375 180.125 6.625 180.188 6.65625C180.25 6.6875 180.312 6.6875 180.375 6.65625C180.438 6.625 180.531 6.60938 180.656 6.60938C180.781 6.60938 180.953 6.73437 181.172 6.98438C181.422 7.20312 181.75 7.3125 182.156 7.3125L183.047 7.26562C183.422 7.26562 183.719 7.34375 183.938 7.5C184.156 7.625 184.406 7.70312 184.688 7.73438C184.75 7.76562 184.781 7.82812 184.781 7.92188C184.781 7.98438 184.812 8.04688 184.875 8.10938H185.062C185.188 8.20312 185.281 8.3125 185.344 8.4375C185.438 8.53125 185.531 8.60938 185.625 8.67188L186.094 8.95312C186.219 9.04688 186.328 9.15625 186.422 9.28125C186.516 9.375 186.641 9.46875 186.797 9.5625C186.891 9.625 186.969 9.71875 187.031 9.84375C187.125 9.96875 187.219 10.0938 187.312 10.2188C187.406 10.3125 187.5 10.3906 187.594 10.4531C187.688 10.5156 187.766 10.625 187.828 10.7812C187.891 10.9062 187.922 11.0312 187.922 11.1562C187.922 11.2812 187.953 11.4219 188.016 11.5781C188.078 11.7031 188.125 11.75 188.156 11.7188C188.188 11.6875 188.203 11.7656 188.203 11.9531C188.203 12.1094 188.234 12.2969 188.297 12.5156C188.391 12.7031 188.5 12.9219 188.625 13.1719C188.75 13.3906 188.859 13.6094 188.953 13.8281C189.047 14.0469 189.141 14.1719 189.234 14.2031V14.5781ZM168.984 19.2188L168.75 21.6094C168.75 21.8281 168.766 22.0156 168.797 22.1719C168.859 22.2969 168.906 22.5156 168.938 22.8281C168.969 23.1094 168.969 23.4688 168.938 23.9062C168.938 24.3125 168.969 24.7812 169.031 25.3125C169.094 25.8438 169.281 26.375 169.594 26.9062C169.906 27.4375 170.094 28.0312 170.156 28.6875C170.406 29.0312 170.641 29.3906 170.859 29.7656C171.109 30.1406 171.359 30.5 171.609 30.8438C172.234 31.7188 172.922 32.25 173.672 32.4375C174.016 33.0625 174.656 33.375 175.594 33.375C175.875 33.375 176.031 33.4062 176.062 33.4688H176.766L178.969 33.7031C179.156 33.7031 179.328 33.6719 179.484 33.6094C179.672 33.5156 179.844 33.4844 180 33.5156C180.25 33.2969 180.484 33.1875 180.703 33.1875C180.922 33.1562 181.188 33.0938 181.5 33C181.562 32.9688 181.578 32.9062 181.547 32.8125C181.547 32.6875 181.594 32.6094 181.688 32.5781C181.781 32.5469 181.922 32.5312 182.109 32.5312C182.234 32.1875 182.484 31.9531 182.859 31.8281C183.234 31.7031 183.562 31.5156 183.844 31.2656C184.156 30.9844 184.453 30.7188 184.734 30.4688C185.016 30.2188 185.266 29.8906 185.484 29.4844C185.734 29.0469 185.938 28.75 186.094 28.5938L186.609 28.125C186.672 28.0625 186.703 27.9844 186.703 27.8906C186.703 27.7656 186.797 27.6562 186.984 27.5625C187.203 27.4688 187.328 27.3906 187.359 27.3281C187.422 27.2344 187.438 27.1562 187.406 27.0938C187.406 27.0312 187.438 26.9688 187.5 26.9062C187.688 26.8438 187.766 26.75 187.734 26.625C187.734 26.4688 187.734 26.3125 187.734 26.1562C187.734 25.9688 187.781 25.8281 187.875 25.7344C188 25.6094 188.016 25.4531 187.922 25.2656C188.141 25.1094 188.266 24.9062 188.297 24.6562C188.328 24.375 188.375 24.1406 188.438 23.9531C188.531 23.7344 188.625 23.5781 188.719 23.4844C188.844 23.3594 188.938 23.2188 189 23.0625C188.938 23 188.906 22.8125 188.906 22.5V22.0312C189.188 21.5938 189.328 21.1875 189.328 20.8125C189.328 20.4062 189.25 20.0469 189.094 19.7344C188.906 19.3281 188.812 18.8125 188.812 18.1875C188.812 17.5312 188.719 17.125 188.531 16.9688C188.344 16.8125 188.25 16.6875 188.25 16.5938V16.2656L188.062 15.2344C188.062 15.0781 187.984 14.9219 187.828 14.7656C187.703 14.6094 187.609 14.4531 187.547 14.2969C187.516 14.1406 187.516 13.9844 187.547 13.8281C187.578 13.6719 187.547 13.4688 187.453 13.2188C187.359 12.9688 187.234 12.7969 187.078 12.7031C186.953 12.6094 186.891 12.3438 186.891 11.9062C186.547 11.7812 186.344 11.5312 186.281 11.1562C185.938 11.0625 185.688 10.875 185.531 10.5938C185.375 10.2812 185.219 10.0938 185.062 10.0312C184.938 9.96875 184.859 9.95312 184.828 9.98438C184.828 9.98438 184.797 9.98438 184.734 9.98438H184.688L184.594 9.75C184.406 9.625 184.219 9.5625 184.031 9.5625L183.234 9.75C182.953 9.75 182.688 9.64062 182.438 9.42188C182.188 9.20312 181.953 9.09375 181.734 9.09375C181.516 9.09375 181.328 9.14062 181.172 9.23438C181.078 9.14062 181.016 9.04688 180.984 8.95312C180.953 8.82812 180.891 8.73438 180.797 8.67188C180.547 8.64062 180.359 8.57812 180.234 8.48438C180.109 8.39062 179.938 8.29688 179.719 8.20312L179.531 8.25L178.594 8.0625C178.531 8.0625 178.453 8.10938 178.359 8.20312C178.297 8.26562 178.188 8.29688 178.031 8.29688C177.875 8.26562 177.734 8.26562 177.609 8.29688C177.484 8.32812 177.375 8.375 177.281 8.4375C177.188 8.46875 177.078 8.5 176.953 8.53125C176.828 8.5625 176.672 8.5625 176.484 8.53125C176.297 8.5 176.125 8.51562 175.969 8.57812C175.844 8.64062 175.734 8.71875 175.641 8.8125C175.578 8.90625 175.469 8.92188 175.312 8.85938C175.125 8.92188 174.984 9.03125 174.891 9.1875C174.828 9.3125 174.469 9.375 173.812 9.375C173.312 10.1562 172.672 10.6875 171.891 10.9688C171.828 11.2188 171.703 11.4219 171.516 11.5781C171.328 11.7031 171.156 11.8594 171 12.0469C170.812 12.2656 170.578 12.7188 170.297 13.4062C170.016 14.0938 169.875 14.5781 169.875 14.8594L169.969 15.2344C169.969 15.4531 169.906 15.6562 169.781 15.8438C169.656 16.0312 169.562 16.2188 169.5 16.4062C169.438 16.5625 169.422 16.7344 169.453 16.9219C169.484 17.0781 169.469 17.25 169.406 17.4375C169.375 17.5938 169.312 17.7656 169.219 17.9531C169 18.3281 168.922 18.75 168.984 19.2188Z" fill="white"/>
</svg>
